<svg width="24" height="24" viewBox="0 0 24 24" fill="none" xmlns="http://www.w3.org/2000/svg">
<path fill-rule="evenodd" clip-rule="evenodd" d="M11.9995 2.87109C6.83065 2.87109 2.64001 7.06197 2.64001 12.2316C2.64001 16.367 5.3213 19.8753 9.04105 21.1123C9.50953 21.1989 9.67993 20.9107 9.67993 20.6618C9.67993 20.4401 9.67177 19.8518 9.66769 19.0699C7.06393 19.6361 6.51457 17.8149 6.51457 17.8149C6.08881 16.7337 5.47513 16.4462 5.47513 16.4462C4.62529 15.8659 5.53969 15.8772 5.53969 15.8772C6.47905 15.9437 6.97345 16.8415 6.97345 16.8415C7.80817 18.2719 9.16441 17.8579 9.69745 17.6198C9.78217 17.0138 10.0246 16.6022 10.2917 16.3677C8.21353 16.1316 6.02857 15.3285 6.02857 11.742C6.02857 10.7198 6.39313 9.88413 6.99169 9.22965C6.89593 8.99397 6.57409 8.04237 7.08361 6.75309C7.08361 6.75309 7.86937 6.50157 9.65785 7.71333C10.404 7.50477 11.2049 7.40061 12.001 7.39749C12.7959 7.40085 13.597 7.50477 14.3441 7.71333C16.1314 6.50157 16.9159 6.75309 16.9159 6.75309C17.4267 8.04237 17.1051 8.99397 17.0091 9.22965C17.6091 9.88413 17.971 10.7198 17.971 11.742C17.971 15.3369 15.7829 16.1289 13.6978 16.3598C14.0333 16.649 14.3328 17.2214 14.3328 18.0948C14.3328 19.3454 14.3215 20.3546 14.3215 20.6616C14.3215 20.9124 14.4898 21.204 14.965 21.1111C18.6807 19.8715 21.36 16.3658 21.36 12.2316C21.36 7.06197 17.1694 2.87109 11.9995 2.87109V2.87109Z" fill="white"/>
</svg>
