<svg width="24" height="24" viewBox="0 0 24 24" fill="none" xmlns="http://www.w3.org/2000/svg">
<path d="M20.9469 8.30502C20.9369 7.54764 20.7951 6.79779 20.5279 6.08902C20.2963 5.49117 19.9425 4.94822 19.4891 4.49485C19.0358 4.04148 18.4928 3.68767 17.8949 3.45602C17.1953 3.19338 16.4561 3.05136 15.7089 3.03602C14.7469 2.99302 14.4419 2.98102 11.9999 2.98102C9.55795 2.98102 9.24495 2.98102 8.28995 3.03602C7.54311 3.05147 6.8043 3.19349 6.10495 3.45602C5.50701 3.68751 4.96397 4.04126 4.51058 4.49465C4.05719 4.94804 3.70344 5.49108 3.47195 6.08902C3.20878 6.78815 3.06707 7.52713 3.05295 8.27402C3.00995 9.23702 2.99695 9.54202 2.99695 11.984C2.99695 14.426 2.99695 14.738 3.05295 15.694C3.06795 16.442 3.20895 17.18 3.47195 17.881C3.70383 18.4788 4.05784 19.0216 4.51138 19.4748C4.96492 19.928 5.50801 20.2816 6.10595 20.513C6.80338 20.7862 7.54232 20.9384 8.29095 20.963C9.25395 21.006 9.55895 21.019 12.0009 21.019C14.4429 21.019 14.7559 21.019 15.7109 20.963C16.4581 20.9483 17.1973 20.8066 17.8969 20.544C18.4946 20.3121 19.0375 19.9582 19.4908 19.5049C19.9441 19.0515 20.298 18.5087 20.5299 17.911C20.7929 17.211 20.9339 16.473 20.9489 15.724C20.9919 14.762 21.0049 14.457 21.0049 12.014C21.0029 9.57202 21.0029 9.26202 20.9469 8.30502V8.30502ZM11.9939 16.602C9.43995 16.602 7.37095 14.533 7.37095 11.979C7.37095 9.42502 9.43995 7.35602 11.9939 7.35602C13.22 7.35602 14.3959 7.84308 15.2629 8.71006C16.1299 9.57704 16.6169 10.7529 16.6169 11.979C16.6169 13.2051 16.1299 14.381 15.2629 15.248C14.3959 16.115 13.22 16.602 11.9939 16.602V16.602ZM16.8009 8.26302C16.6593 8.26315 16.5191 8.23536 16.3883 8.18123C16.2574 8.1271 16.1385 8.0477 16.0384 7.94757C15.9383 7.84744 15.8589 7.72855 15.8047 7.59771C15.7506 7.46686 15.7228 7.32662 15.7229 7.18502C15.7229 7.04352 15.7508 6.90341 15.805 6.77268C15.8591 6.64195 15.9385 6.52317 16.0385 6.42311C16.1386 6.32306 16.2574 6.24369 16.3881 6.18954C16.5188 6.13539 16.659 6.10752 16.8004 6.10752C16.9419 6.10752 17.0821 6.13539 17.2128 6.18954C17.3435 6.24369 17.4623 6.32306 17.5624 6.42311C17.6624 6.52317 17.7418 6.64195 17.7959 6.77268C17.8501 6.90341 17.8779 7.04352 17.8779 7.18502C17.8779 7.78102 17.3959 8.26302 16.8009 8.26302Z" fill="white"/>
<path d="M11.994 14.982C13.6525 14.982 14.997 13.6375 14.997 11.979C14.997 10.3205 13.6525 8.97601 11.994 8.97601C10.3355 8.97601 8.99097 10.3205 8.99097 11.979C8.99097 13.6375 10.3355 14.982 11.994 14.982Z" fill="white"/>
</svg>
